<svg width="601" height="465" viewBox="0 0 601 465" fill="none" xmlns="http://www.w3.org/2000/svg">
<g clip-path="url(#clip0)">
<path d="M529.568 263.917L542.711 250.776C541.514 242.065 539.825 233.428 537.654 224.906L530.164 228.695L536.893 221.967C534.104 211.457 531.591 204.673 531.591 204.673C531.591 204.673 505.105 231.629 491.415 263.239L499.897 285.522L488.292 271.197C486.969 274.938 485.882 278.757 485.038 282.634C476.663 321.747 482.655 356.187 498.424 359.56C514.192 362.932 533.764 333.958 542.14 294.845C544.737 282.72 544.708 269.447 543.434 256.903L529.568 263.917Z" fill="#E6E6E6"/>
<path d="M568.624 291.212L586.672 286.751C590.153 278.675 593.175 270.41 595.725 261.994L587.353 261.368L596.593 259.084C599.642 248.646 601 241.541 601 241.541C601 241.541 564.383 250.935 536.314 270.923L532.049 294.38L529.524 276.123C526.457 278.641 523.551 281.349 520.823 284.232C493.423 313.388 480.738 345.966 492.492 356.998C504.246 368.03 535.988 353.338 563.389 324.182C571.883 315.143 578.724 303.766 584.122 292.37L568.624 291.212Z" fill="#E6E6E6"/>
<path d="M396.376 129.187L400.81 94.4119C388.959 82.7917 376.461 71.8488 363.376 61.6353L356.575 75.9316L358.845 58.1266C342.54 45.6578 330.953 38.4324 330.953 38.4324C330.953 38.4324 322.563 109.222 338.65 172.193L377.052 195.665L343.183 187.674C345.529 194.784 348.319 201.738 351.538 208.497C384.223 276.536 432.956 321.024 460.385 307.865C487.814 294.706 483.554 228.882 450.869 160.843C440.737 139.751 425.361 119.974 408.967 102.721L396.376 129.187Z" fill="#E6E6E6"/>
<path d="M486.199 124.865L507.982 97.3855C503.847 81.3163 498.809 65.4929 492.891 49.9908L479.674 58.7157L490.827 44.6464C483.318 25.5502 477.136 13.3794 477.136 13.3794C477.136 13.3794 433.339 69.6447 414.538 131.86L435.272 171.791L410.411 147.455C408.742 154.752 407.533 162.147 406.793 169.596C399.58 244.724 418.286 307.981 448.573 310.885C478.861 313.789 509.261 255.24 516.474 180.112C518.71 156.822 515.777 131.95 510.667 108.713L486.199 124.865Z" fill="#E6E6E6"/>
<path d="M84.6358 134.298L82.4323 97.8098C68.0358 88.2002 53.1084 79.4097 37.7212 71.4802L33.5258 87.4454L32.3977 68.7633C13.2736 59.147 0 53.989 0 53.989C0 53.989 5.13706 128.142 33.8345 189.544L77.7336 206.152L41.4823 204.527C45.2646 211.356 49.473 217.941 54.0825 224.243C100.769 287.62 159.329 323.76 184.879 304.963C210.429 286.167 193.295 219.552 146.608 156.175C132.135 136.527 112.545 119.244 92.4023 104.743L84.6358 134.298Z" fill="#E6E6E6"/>
<path d="M175.826 112.468L192.814 80.0935C185.46 64.4307 177.228 49.1947 168.158 34.4584L156.308 45.9582L165.006 29.3827C153.609 11.2721 144.914 0 144.914 0C144.914 0 110.956 66.1323 103.763 133.518L132.751 170.413L102.559 150.295C102.265 158.095 102.461 165.906 103.148 173.681C110.332 252.052 141.768 313.238 173.363 310.346C204.958 307.454 224.746 241.577 217.562 163.207C215.335 138.912 207.505 113.997 197.762 91.1785L175.826 112.468Z" fill="#E6E6E6"/>
<path d="M270.861 440.055C283.233 440.055 293.263 437.191 293.263 433.659C293.263 430.126 283.233 427.263 270.861 427.263C258.489 427.263 248.46 430.126 248.46 433.659C248.46 437.191 258.489 440.055 270.861 440.055Z" fill="#E6E6E6"/>
<path d="M514.717 465C527.089 465 537.118 462.136 537.118 458.604C537.118 455.071 527.089 452.208 514.717 452.208C502.345 452.208 492.316 455.071 492.316 458.604C492.316 462.136 502.345 465 514.717 465Z" fill="#E6E6E6"/>
<path d="M561.44 412.552C573.812 412.552 583.841 409.688 583.841 406.155C583.841 402.623 573.812 399.759 561.44 399.759C549.068 399.759 539.039 402.623 539.039 406.155C539.039 409.688 549.068 412.552 561.44 412.552Z" fill="#E6E6E6"/>
<path d="M469.594 394.003C478.962 394.003 486.555 391.835 486.555 389.16C486.555 386.485 478.962 384.317 469.594 384.317C460.227 384.317 452.633 386.485 452.633 389.16C452.633 391.835 460.227 394.003 469.594 394.003Z" fill="#E6E6E6"/>
<path d="M102.21 389.434C108.396 389.434 113.411 387.88 113.411 385.962C113.411 384.044 108.396 382.49 102.21 382.49C96.0244 382.49 91.0097 384.044 91.0097 385.962C91.0097 387.88 96.0244 389.434 102.21 389.434Z" fill="#E6E6E6"/>
<path d="M58.0476 428.45C64.2336 428.45 69.2483 426.896 69.2483 424.978C69.2483 423.061 64.2336 421.506 58.0476 421.506C51.8616 421.506 46.8469 423.061 46.8469 424.978C46.8469 426.896 51.8616 428.45 58.0476 428.45Z" fill="#E6E6E6"/>
<path d="M58.0476 367.048C64.2336 367.048 69.2483 365.493 69.2483 363.575C69.2483 361.658 64.2336 360.103 58.0476 360.103C51.8616 360.103 46.8469 361.658 46.8469 363.575C46.8469 365.493 51.8616 367.048 58.0476 367.048Z" fill="#E6E6E6"/>
<path d="M537.677 374.785L429.151 370.948L371.919 376.403L274.14 385.723L237.344 389.228L152.128 417.627C151.786 417.741 151.419 417.755 151.069 417.669C150.719 417.583 150.4 417.399 150.15 417.139C149.9 416.88 149.729 416.554 149.657 416.201C149.585 415.848 149.614 415.482 149.741 415.145L149.748 415.138L164.526 376.077L162.971 374.932L122.303 345.069L122.085 344.909L69.3519 336.875C68.6095 336.761 67.9084 336.46 67.3146 336.001C66.7208 335.541 66.254 334.938 65.9581 334.248C65.6623 333.558 65.5471 332.804 65.6235 332.058C65.7 331.311 65.9655 330.596 66.395 329.98L146.707 214.811L188.912 154.304L193.488 147.735L369.051 145.311L540.461 369.4C540.847 369.904 541.081 370.508 541.137 371.141C541.193 371.774 541.068 372.409 540.776 372.974C540.484 373.538 540.038 374.008 539.489 374.329C538.94 374.649 538.312 374.808 537.677 374.785Z" fill="#DC5A5A"/>
<path opacity="0.2" d="M234.614 157.081L162.969 374.933L122.305 345.069L146.709 214.813L188.79 154.159L188.91 154.301L234.614 157.081Z" fill="black"/>
<path d="M170.662 240.537C162.533 260.066 159.655 276.379 150.012 273.433C136.811 269.4 150.672 255.136 158.801 235.606C166.93 216.076 172.674 201.095 179.451 202.71C192.085 205.719 178.791 221.007 170.662 240.537Z" fill="#3F3D56"/>
<path d="M189.08 201.445C189.078 200.152 188.822 198.873 188.325 197.679C187.828 196.486 187.101 195.402 186.185 194.49C185.269 193.577 184.182 192.854 182.986 192.361C181.79 191.869 180.509 191.616 179.216 191.618C178.994 191.618 178.774 191.629 178.555 191.644L169.261 190.498C168.195 190.118 167.071 189.925 165.939 189.928C165.626 189.928 165.317 189.945 165.012 189.974L164.654 189.93L164.644 190.017C162.463 190.31 160.443 191.324 158.906 192.898C157.369 194.472 156.404 196.515 156.164 198.701C155.925 200.887 156.425 203.09 157.584 204.959C158.744 206.829 160.497 208.255 162.563 209.013L162.544 209.19L163.458 209.292C164.278 209.506 165.123 209.614 165.97 209.612C166.064 209.612 166.157 209.607 166.251 209.605L175.751 210.668C176.869 211.09 178.053 211.305 179.247 211.303C179.693 211.301 180.137 211.27 180.578 211.208L181.389 211.299L181.393 211.062C183.578 210.571 185.529 209.35 186.927 207.602C188.324 205.854 189.084 203.682 189.08 201.445Z" fill="#DC5A5A"/>
<path opacity="0.2" d="M189.08 201.445C189.078 200.152 188.822 198.873 188.325 197.679C187.828 196.486 187.101 195.402 186.185 194.49C185.269 193.577 184.182 192.854 182.986 192.361C181.79 191.869 180.509 191.616 179.216 191.618C178.994 191.618 178.774 191.629 178.555 191.644L169.261 190.498C168.195 190.118 167.071 189.925 165.939 189.928C165.626 189.928 165.317 189.945 165.012 189.974L164.654 189.93L164.644 190.017C162.463 190.31 160.443 191.324 158.906 192.898C157.369 194.472 156.404 196.515 156.164 198.701C155.925 200.887 156.425 203.09 157.584 204.959C158.744 206.829 160.497 208.255 162.563 209.013L162.544 209.19L163.458 209.292C164.278 209.506 165.123 209.614 165.97 209.612C166.064 209.612 166.157 209.607 166.251 209.605L175.751 210.668C176.869 211.09 178.053 211.305 179.247 211.303C179.693 211.301 180.137 211.27 180.578 211.208L181.389 211.299L181.393 211.062C183.578 210.571 185.529 209.35 186.927 207.602C188.324 205.854 189.084 203.682 189.08 201.445Z" fill="white"/>
<path d="M57.5484 335.895L56.4108 335.299C85.5485 279.8 167.96 161.22 168.789 160.029L169.844 160.762C169.016 161.953 86.6489 280.467 57.5484 335.895Z" fill="#3F3D56"/>
<path d="M146.801 419.068L145.562 418.73C146.162 416.525 205.844 197.75 226.566 160.844L227.686 161.472C207.042 198.241 147.401 416.864 146.801 419.068Z" fill="#3F3D56"/>
<path d="M545.512 376.653C513.694 324.273 393.536 162.051 392.325 160.418L393.358 159.654C394.568 161.287 514.762 323.557 546.61 375.986L545.512 376.653Z" fill="#3F3D56"/>
<path d="M144.488 424.891C146.971 424.887 148.98 422.297 148.975 419.107C148.97 415.916 146.953 413.333 144.47 413.337C141.987 413.341 139.978 415.931 139.983 419.121C139.988 422.312 142.005 424.895 144.488 424.891Z" fill="#3F3D56"/>
<path d="M57.8405 338.377C60.3237 338.373 62.3326 335.784 62.3274 332.593C62.3223 329.403 60.3051 326.819 57.8219 326.823C55.3388 326.827 53.3299 329.417 53.335 332.607C53.3402 335.798 55.3574 338.381 57.8405 338.377Z" fill="#3F3D56"/>
<path d="M546.703 379.535C549.186 379.531 551.195 376.942 551.19 373.751C551.185 370.561 549.168 367.978 546.685 367.982C544.202 367.986 542.193 370.575 542.198 373.766C542.203 376.956 544.22 379.539 546.703 379.535Z" fill="#3F3D56"/>
<path d="M163.796 166.401L406.129 168.996C405.961 149.217 397.978 130.306 383.92 116.383C369.861 102.46 350.867 94.6532 331.074 94.6631L238.591 94.8118C199.907 94.874 167.152 125.105 164.021 163.636L163.796 166.401Z" fill="#3F3D56"/>
<path opacity="0.2" d="M376.719 246.453H288.15C287.072 246.452 286.004 246.665 285.009 247.08C284.013 247.495 283.11 248.103 282.352 248.869C281.594 249.636 280.996 250.545 280.593 251.545C280.189 252.544 279.989 253.614 280.002 254.691L280.079 261.164L280.866 330.46L280.879 331.797L280.905 334.003L280.93 336.159L281.078 349.149C281.102 351.263 281.947 353.285 283.435 354.788C284.923 356.29 286.938 357.156 289.052 357.202C289.27 357.202 289.494 357.196 289.718 357.183L310.75 355.904L341.177 354.049L351.917 353.397L354.311 353.249L371.048 352.232H371.055L377.212 351.855C379.283 351.727 381.227 350.815 382.649 349.304C384.071 347.794 384.864 345.799 384.867 343.726V254.595C384.864 252.436 384.005 250.367 382.478 248.84C380.95 247.314 378.879 246.455 376.719 246.453Z" fill="black"/>
<path d="M394.958 235.135C394.637 235.16 394.327 235.256 394.048 235.416C393.769 235.576 393.529 235.795 393.345 236.058L383.587 236.074V233.488C383.584 231.329 382.725 229.259 381.198 227.733C379.67 226.206 377.599 225.348 375.439 225.345H286.87C285.792 225.344 284.724 225.558 283.728 225.972C282.733 226.387 281.83 226.996 281.072 227.762C280.314 228.528 279.716 229.438 279.313 230.437C278.909 231.437 278.709 232.506 278.722 233.584L278.754 236.243L272.46 236.253C272.115 235.886 271.641 235.666 271.138 235.641C268.932 235.644 267.152 240.459 267.161 246.394C267.171 252.329 268.967 257.137 271.173 257.134C271.557 257.092 271.926 256.958 272.248 256.744C272.569 256.529 272.835 256.241 273.021 255.903L393.377 255.709C393.562 255.972 393.803 256.19 394.082 256.349C394.361 256.508 394.672 256.603 394.992 256.628C397.198 256.624 398.979 251.81 398.969 245.875C398.96 239.94 397.164 235.131 394.958 235.135Z" fill="#DC5A5A"/>
<path opacity="0.2" d="M394.958 235.135C394.637 235.16 394.327 235.256 394.048 235.416C393.769 235.576 393.529 235.795 393.345 236.058L383.587 236.074V233.488C383.584 231.329 382.725 229.259 381.198 227.733C379.67 226.206 377.599 225.348 375.439 225.345H286.87C285.792 225.344 284.724 225.558 283.729 225.972C282.733 226.387 281.83 226.996 281.072 227.762C280.314 228.529 279.716 229.438 279.313 230.437C278.909 231.437 278.709 232.506 278.722 233.584L278.754 236.243L272.46 236.253C272.115 235.886 271.641 235.666 271.138 235.641C268.932 235.644 267.152 240.459 267.161 246.394C267.171 252.329 268.967 257.137 271.173 257.134C271.557 257.092 271.926 256.958 272.248 256.744C272.569 256.529 272.835 256.241 273.022 255.903L393.377 255.709C393.562 255.972 393.802 256.19 394.082 256.349C394.361 256.508 394.672 256.603 394.992 256.628C397.198 256.624 398.979 251.81 398.969 245.875C398.96 239.94 397.164 235.131 394.958 235.135Z" fill="white"/>
<path d="M385.043 371.014C384.457 371.562 383.751 371.967 382.982 372.198C382.213 372.428 381.401 372.478 380.61 372.343C379.818 372.207 379.069 371.891 378.42 371.418C377.771 370.946 377.241 370.329 376.87 369.618L372.054 360.379L373.97 356.231L384.293 362.833C384.961 363.26 385.522 363.834 385.934 364.511C386.346 365.189 386.598 365.951 386.671 366.74C386.743 367.529 386.634 368.325 386.352 369.065C386.07 369.806 385.622 370.472 385.043 371.014Z" fill="#FFB8B8"/>
<path d="M405.843 424.918C405.729 423.851 405.22 422.864 404.416 422.152C403.612 421.44 402.571 421.054 401.496 421.069C400.518 421.062 399.566 421.384 398.792 421.983C398.019 422.583 397.47 423.424 397.232 424.373L392.968 445.067C392.827 445.672 392.754 446.291 392.75 446.912C392.75 451.578 396.658 454.821 401.496 454.821C406.335 454.821 410.245 451.578 410.245 446.912C410.243 446.164 410.141 445.42 409.943 444.699L405.843 424.918Z" fill="#3F3D56"/>
<path d="M438.1 434.174C437.666 433.794 437.199 433.453 436.705 433.156L420.414 421.778C418.828 420.783 417.134 420.811 415.904 422.012C415.367 422.523 415.026 423.206 414.94 423.941C414.855 424.677 415.03 425.42 415.435 426.04L427.736 442.196C428.017 442.588 428.331 442.955 428.673 443.294C430.806 445.676 435.534 445.807 438.132 443.294C440.696 440.74 440.665 436.188 438.1 434.174Z" fill="#3F3D56"/>
<path d="M450.342 417.32H433.842C433.313 417.3 432.798 417.49 432.408 417.848C432.019 418.205 431.786 418.703 431.762 419.231C431.753 419.718 431.908 420.194 432.202 420.583C432.496 420.972 432.912 421.251 433.383 421.376L448.948 426.188C451.209 426.714 454.255 424.701 454.255 422.186C454.255 418.987 452.474 417.32 450.342 417.32Z" fill="#3F3D56"/>
<path d="M371.831 419.222C371.814 418.95 371.743 418.684 371.621 418.441C371.5 418.197 371.332 417.98 371.125 417.802C370.919 417.624 370.68 417.489 370.421 417.404C370.162 417.32 369.888 417.288 369.617 417.311H353.117C351.039 417.311 349.286 419.554 349.286 422.069C349.286 424.584 352.243 426.714 354.511 426.188L370.31 421.376C370.784 421.266 371.201 420.985 371.481 420.588C371.762 420.191 371.886 419.705 371.831 419.222Z" fill="#3F3D56"/>
<path d="M383.155 421.797L366.859 433.125C366.353 433.41 365.881 433.752 365.453 434.144C364.255 435.257 363.549 436.801 363.49 438.435C363.43 440.069 364.023 441.66 365.137 442.857C365.239 442.966 365.344 443.071 365.453 443.173C366.732 444.379 368.423 445.051 370.182 445.051C371.94 445.051 373.632 444.379 374.91 443.173C375.258 442.839 375.572 442.472 375.847 442.077L388.157 426.012C388.57 425.4 388.749 424.661 388.663 423.928C388.577 423.195 388.232 422.517 387.689 422.017C387.081 421.451 386.292 421.118 385.462 421.078C384.632 421.037 383.815 421.292 383.155 421.797Z" fill="#3F3D56"/>
<path d="M408.503 399.659C408.692 399.381 408.797 399.054 408.805 398.718C408.805 396.735 404.895 395.357 400.056 395.357C395.218 395.357 391.31 396.735 391.31 398.718C391.317 398.994 391.392 399.263 391.528 399.503L395.792 408.297C396.281 409.127 398.042 409.707 400.056 409.701C402.327 409.701 404.213 408.984 404.403 408.065L408.503 399.659Z" fill="#3F3D56"/>
<path d="M436.692 400.256C434.094 399.188 429.366 399.244 427.233 400.256C426.911 400.39 426.598 400.546 426.296 400.722L413.995 407.588C413.159 408.132 413.356 408.852 414.464 409.3C415.92 409.804 417.497 409.839 418.974 409.4L435.265 404.564C435.737 404.445 436.203 404.3 436.66 404.132C439.225 403.276 439.256 401.341 436.692 400.256Z" fill="#3F3D56"/>
<path d="M452.815 409.227C452.815 408.158 449.769 407.302 447.508 407.526L431.943 409.571C431.013 409.701 430.322 410.004 430.322 410.483C430.322 410.961 431.336 411.294 432.402 411.294H448.902C451.034 411.294 452.815 410.586 452.815 409.227Z" fill="#3F3D56"/>
<path d="M368.87 409.571L353.071 407.526C350.803 407.302 347.846 408.208 347.846 409.276C347.846 410.345 349.599 411.298 351.677 411.298H368.177C369.325 411.298 370.391 410.984 370.391 410.486C370.391 409.989 369.899 409.701 368.87 409.571Z" fill="#3F3D56"/>
<path d="M386.249 409.298C387.402 408.843 387.537 408.156 386.717 407.6L374.407 400.773C374.108 400.593 373.794 400.437 373.47 400.307C370.408 399.243 367.075 399.243 364.013 400.307C363.904 400.35 363.799 400.395 363.697 400.442C361.377 401.501 361.518 403.159 364.013 404.145C364.472 404.321 364.941 404.465 365.419 404.577L381.715 409.392C383.199 409.832 384.784 409.8 386.249 409.298Z" fill="#3F3D56"/>
<path d="M433.615 398.235C433.615 423.668 419.431 424.138 401.934 424.138C384.437 424.138 355.711 419.107 370.253 398.235C385.591 376.221 411.904 334.26 401.934 332.038C401.934 332.038 433.615 372.802 433.615 398.235Z" fill="#F9A825"/>
<path opacity="0.5" d="M413.091 413.885C413.091 423.952 407.477 424.138 400.551 424.138C393.625 424.138 382.255 422.147 388.011 413.885C394.082 405.171 404.498 388.562 400.551 387.682C400.551 387.682 413.091 403.818 413.091 413.885Z" fill="#FF6584"/>
<path d="M384.867 339.178V343.725C384.864 345.799 384.071 347.794 382.649 349.304C381.227 350.814 379.283 351.727 377.212 351.855L289.718 357.183C288.616 357.25 287.512 357.093 286.473 356.721C285.434 356.349 284.482 355.77 283.673 355.018C282.865 354.267 282.218 353.359 281.772 352.35C281.326 351.341 281.09 350.252 281.078 349.149L280.866 330.46L333.791 329.603L384.867 339.178Z" fill="#3F3D56"/>
<path d="M370.599 361.704L331.127 341.216C330.945 341.122 330.785 340.99 330.658 340.829C330.531 340.668 330.44 340.482 330.391 340.283L321.828 305.796C321.331 303.795 321.599 301.681 322.58 299.867C323.561 298.053 325.184 296.67 327.131 295.989L329.194 295.268C329.654 295.107 330.142 295.042 330.628 295.077C331.114 295.113 331.587 295.247 332.019 295.473C332.451 295.698 332.832 296.01 333.138 296.388C333.445 296.767 333.67 297.204 333.8 297.674L342.24 328.036C342.319 328.32 342.483 328.573 342.71 328.761L374.871 355.391C375.148 355.62 375.33 355.945 375.38 356.302C375.43 356.659 375.345 357.021 375.141 357.318L372.458 361.238C372.259 361.529 371.959 361.737 371.617 361.823C371.275 361.909 370.913 361.866 370.599 361.704Z" fill="#E6E6E6"/>
<path d="M344.596 308.051C325.452 297.979 305.412 292.921 283.933 295.927C290.407 284.961 295.216 274.822 294.895 267.233C294.757 264.794 295.219 262.358 296.242 260.139C297.264 257.92 298.815 255.986 300.76 254.505C303.889 252.187 307.681 250.936 311.576 250.938C315.054 249.388 318.994 249.232 322.584 250.501C324.108 251.074 325.494 251.962 326.651 253.107C327.808 254.252 328.71 255.628 329.299 257.145C330.033 258.923 331.614 260.481 333.907 261.853C336.031 263.081 337.762 264.888 338.897 267.062C340.407 270.066 340.511 273.091 338.532 276.145C345.945 283.927 345.965 295.621 344.596 308.051Z" fill="#2F2E41"/>
<path d="M317.457 282.845C324.863 282.845 330.867 276.845 330.867 269.444C330.867 262.043 324.863 256.043 317.457 256.043C310.051 256.043 304.047 262.043 304.047 269.444C304.047 276.845 310.051 282.845 317.457 282.845Z" fill="#FFB8B8"/>
<path d="M323.843 298.479L308.198 300.075C309.038 290.934 309.368 282.498 308.198 276.145H323.843C320.872 286.261 321.132 293.471 323.843 298.479Z" fill="#FFB8B8"/>
<path d="M332.223 298.134C332.21 299.535 332.181 300.92 332.134 302.291C331.807 312.103 330.572 320.936 327.205 327.441C326.522 328.788 325.705 330.063 324.767 331.247C324.76 331.259 324.752 331.27 324.741 331.279C324.677 331.369 324.606 331.454 324.53 331.535C323.841 332.389 323.077 333.179 322.245 333.895L315.838 340.611L315.544 340.918L313.675 342.165L304.049 348.574L280.93 336.159L280.905 334.003L280.879 331.797C286.019 324.518 289.225 315.052 291.261 304.274C291.817 301.326 292.291 298.275 292.694 295.14C292.97 292.972 293.213 290.759 293.424 288.514C293.457 287.825 293.69 287.16 294.096 286.602C294.096 286.601 294.096 286.6 294.096 286.599C294.097 286.598 294.097 286.598 294.098 286.597C294.098 286.596 294.099 286.596 294.1 286.596C294.101 286.595 294.102 286.595 294.102 286.595C295.088 285.342 297.047 285.367 299.415 285.239C302.737 285.06 306.007 283.34 308.945 284.964C309.018 284.998 309.089 285.036 309.156 285.079L317.778 294.648L321.739 290.382L321.925 290.183L330.086 293.676C330.92 294.036 331.596 294.686 331.989 295.505C332.382 296.324 332.465 297.258 332.223 298.134Z" fill="#E6E6E6"/>
<path d="M314.027 345.165C314.027 346.796 313.719 348.413 313.118 349.93L310.75 355.904L289.718 357.183C289.494 357.196 289.27 357.202 289.052 357.202C286.938 357.156 284.923 356.29 283.435 354.788C281.947 353.285 281.102 351.263 281.078 349.149L280.93 336.159L280.905 334.003L288.56 337.246L296.023 333.242C296.429 333.068 296.846 332.919 297.271 332.794C297.823 332.619 298.388 332.485 298.96 332.391H298.967C299.242 332.347 299.517 332.308 299.792 332.283C302.956 331.966 306.125 332.824 308.695 334.694C310.198 335.781 311.445 337.183 312.35 338.8C312.419 338.911 312.481 339.027 312.536 339.146C313.044 340.099 313.427 341.113 313.675 342.165C313.908 343.148 314.026 344.154 314.027 345.165Z" fill="#2F2E41"/>
<path opacity="0.2" d="M308.038 306.935L310.836 319.762L327.834 334.375L312.828 319.06L308.038 306.935Z" fill="black"/>
<path opacity="0.2" d="M292.394 312.997L297.502 333.736L312.509 339.161L298.46 332.141L292.394 312.997Z" fill="black"/>
<path d="M333.581 270.242C323.698 265.698 312.524 264.402 302.611 269.285L303.888 257.798L325.599 254.288L333.581 270.242Z" fill="#2F2E41"/>
<path d="M413.028 371.178L340.354 358.701L341.244 354.313L413.028 371.178Z" fill="#3F3D56"/>
<path d="M352.476 361.442C351.89 361.99 351.185 362.395 350.415 362.626C349.646 362.856 348.834 362.906 348.043 362.771C347.251 362.635 346.502 362.319 345.853 361.846C345.204 361.374 344.674 360.757 344.303 360.046L339.488 350.807L341.403 346.659L351.726 353.261C352.394 353.688 352.955 354.262 353.368 354.939C353.78 355.617 354.032 356.379 354.104 357.168C354.176 357.957 354.067 358.752 353.785 359.493C353.503 360.234 353.055 360.9 352.476 361.442Z" fill="#FFB8B8"/>
<path d="M338.033 352.132L298.56 331.644C298.378 331.55 298.218 331.418 298.091 331.257C297.964 331.096 297.873 330.909 297.824 330.71L289.261 296.224C288.765 294.223 289.033 292.109 290.014 290.295C290.995 288.481 292.617 287.098 294.565 286.417L296.627 285.696C297.087 285.535 297.575 285.47 298.061 285.505C298.547 285.54 299.021 285.675 299.452 285.9C299.884 286.126 300.265 286.438 300.572 286.816C300.878 287.195 301.103 287.632 301.234 288.101L309.673 318.463C309.752 318.748 309.916 319.001 310.144 319.189L342.304 345.818C342.582 346.048 342.763 346.373 342.813 346.73C342.863 347.086 342.778 347.449 342.575 347.746L339.891 351.666C339.692 351.957 339.393 352.165 339.05 352.251C338.708 352.337 338.346 352.294 338.033 352.132Z" fill="#E6E6E6"/>
<path d="M405.195 373.449C405.544 373.517 405.905 373.445 406.201 373.248C406.497 373.05 406.703 372.744 406.774 372.396L407.502 368.754C407.572 368.405 407.5 368.043 407.303 367.747C407.105 367.452 406.798 367.246 406.449 367.176L395.9 365.069C395.552 365 395.189 365.072 394.894 365.269C394.598 365.467 394.392 365.773 394.322 366.121L393.593 369.764C393.559 369.936 393.559 370.114 393.593 370.287C393.627 370.459 393.695 370.624 393.793 370.77C393.89 370.917 394.016 371.043 394.163 371.141C394.309 371.239 394.473 371.307 394.646 371.341L405.195 373.449Z" fill="#E6E6E6"/>
</g>
<defs>
<clipPath id="clip0">
<rect width="601" height="465" fill="white"/>
</clipPath>
</defs>
</svg>
