<svg width="1920" height="650" viewBox="0 0 1920 650" fill="none" xmlns="http://www.w3.org/2000/svg">
<g clip-path="url(#clip0)">
<mask id="mask0" mask-type="alpha" maskUnits="userSpaceOnUse" x="-40" y="0" width="2177" height="964">
<path d="M150.5 161.33C81.03 127.589 110.19 21.67 35 3.11506C6.59791 -3.89382 -40 3.11506 -40 3.11506V894.604L2112 963.18C2112 963.18 2184.64 609.89 2080 426.817C1943.73 188.401 1765 89.325 1438.5 119.205C1112 149.084 938.563 455.496 628 347.955C500.245 303.716 470.757 187.911 338 161.33C266.26 146.966 216.103 193.193 150.5 161.33Z" fill="#3F3D56"/>
</mask>
<g mask="url(#mask0)">
<path d="M150.5 159.371C81.03 125.63 110.19 19.7108 35 1.15583C6.59791 -5.85305 -40 1.15583 -40 1.15583V892.644L2112 961.221C2112 961.221 2184.64 607.931 2080 424.858C1943.73 186.442 1765 87.3658 1438.5 117.245C1112 147.125 938.563 453.537 628 345.995C500.245 301.756 470.757 185.952 338 159.371C266.26 145.006 216.103 191.233 150.5 159.371Z" fill="#3F3D56"/>
<path d="M45.3082 242.431C48.173 241.922 50.0602 239.22 49.5233 236.396C48.9865 233.572 46.2289 231.695 43.3642 232.204C40.4994 232.713 38.6122 235.415 39.149 238.239C39.6858 241.063 42.4434 242.94 45.3082 242.431Z" fill="white"/>
<path d="M73.5282 299.646C76.3929 299.137 78.2801 296.435 77.7433 293.611C77.2065 290.787 74.4489 288.91 71.5841 289.419C68.7193 289.928 66.8322 292.63 67.369 295.454C67.9058 298.278 70.6634 300.155 73.5282 299.646Z" fill="white"/>
<path d="M61.2039 454.728C64.0687 454.219 65.9559 451.517 65.4191 448.693C64.8823 445.868 62.1247 443.992 59.2599 444.501C56.3951 445.01 54.5079 447.712 55.0448 450.536C55.5816 453.36 58.3392 455.237 61.2039 454.728Z" fill="white"/>
<path d="M24.0628 110.014C28.8375 109.166 31.9828 104.662 31.088 99.9555C30.1933 95.2487 25.5974 92.1207 20.8228 92.9689C16.0481 93.8172 12.9028 98.3206 13.7975 103.027C14.6922 107.734 19.2882 110.862 24.0628 110.014Z" fill="white"/>
<path d="M216.61 370.007C218.52 369.667 219.778 367.866 219.42 365.983C219.062 364.1 217.224 362.849 215.314 363.188C213.404 363.528 212.146 365.329 212.504 367.212C212.862 369.095 214.7 370.346 216.61 370.007Z" fill="#E6E6E6"/>
<path d="M123.524 329.368C124.479 329.199 125.108 328.298 124.929 327.357C124.75 326.415 123.831 325.79 122.876 325.959C121.921 326.129 121.292 327.03 121.471 327.971C121.65 328.912 122.569 329.538 123.524 329.368Z" fill="#E6E6E6"/>
<path d="M381.16 266.002C382.115 265.833 382.744 264.932 382.565 263.991C382.386 263.049 381.467 262.424 380.512 262.593C379.557 262.763 378.928 263.664 379.106 264.605C379.285 265.546 380.205 266.172 381.16 266.002Z" fill="#E6E6E6"/>
<path d="M309.107 331.095C310.062 330.925 310.691 330.025 310.512 329.083C310.333 328.142 309.414 327.516 308.459 327.686C307.504 327.855 306.875 328.756 307.054 329.697C307.233 330.639 308.152 331.265 309.107 331.095Z" fill="#E6E6E6"/>
<path d="M212.652 285.212C213.606 285.043 214.236 284.142 214.057 283.2C213.878 282.259 212.958 281.633 212.004 281.803C211.049 281.973 210.419 282.873 210.598 283.815C210.777 284.756 211.697 285.382 212.652 285.212Z" fill="#E6E6E6"/>
<path d="M71.3603 137.305C72.3152 137.135 72.9443 136.234 72.7653 135.293C72.5864 134.351 71.6672 133.726 70.7122 133.895C69.7573 134.065 69.1282 134.966 69.3072 135.907C69.4861 136.849 70.4053 137.474 71.3603 137.305Z" fill="#E6E6E6"/>
<path d="M69.507 50.9659C70.4619 50.7963 71.091 49.8956 70.9121 48.9542C70.7331 48.0128 69.8139 47.3872 68.859 47.5568C67.904 47.7265 67.2749 48.6272 67.4539 49.5686C67.6328 50.51 68.552 51.1356 69.507 50.9659Z" fill="#E6E6E6"/>
<path d="M127.618 405.348C128.573 405.178 129.202 404.277 129.023 403.336C128.844 402.395 127.925 401.769 126.97 401.939C126.015 402.108 125.386 403.009 125.564 403.95C125.743 404.892 126.663 405.517 127.618 405.348Z" fill="#E6E6E6"/>
<path d="M35.3661 385.062C36.3211 384.892 36.9502 383.991 36.7712 383.05C36.5923 382.109 35.6731 381.483 34.7181 381.653C33.7631 381.822 33.1341 382.723 33.313 383.664C33.492 384.606 34.4112 385.231 35.3661 385.062Z" fill="#E6E6E6"/>
<path d="M295.012 275.07C295.967 274.9 296.596 274 296.417 273.058C296.238 272.117 295.319 271.491 294.364 271.661C293.409 271.83 292.78 272.731 292.959 273.673C293.138 274.614 294.057 275.24 295.012 275.07Z" fill="#E6E6E6"/>
<path d="M45.3082 560.819C48.173 560.31 50.0602 557.608 49.5233 554.784C48.9865 551.96 46.2289 550.083 43.3642 550.592C40.4994 551.101 38.6122 553.803 39.149 556.627C39.6858 559.451 42.4434 561.328 45.3082 560.819Z" fill="white"/>
<path d="M73.5282 618.034C76.3929 617.526 78.2801 614.824 77.7433 611.999C77.2065 609.175 74.4489 607.298 71.5841 607.807C68.7193 608.316 66.8322 611.018 67.369 613.843C67.9058 616.667 70.6634 618.543 73.5282 618.034Z" fill="white"/>
<path d="M24.0628 428.402C28.8375 427.554 31.9828 423.051 31.088 418.344C30.1933 413.637 25.5974 410.509 20.8228 411.357C16.0481 412.206 12.9028 416.709 13.7975 421.416C14.6922 426.123 19.2882 429.251 24.0628 428.402Z" fill="white"/>
<path d="M123.524 647.757C124.479 647.587 125.108 646.686 124.929 645.745C124.75 644.804 123.831 644.178 122.876 644.348C121.921 644.517 121.292 645.418 121.471 646.359C121.65 647.301 122.569 647.926 123.524 647.757Z" fill="#E6E6E6"/>
<path d="M381.16 584.391C382.115 584.221 382.744 583.321 382.565 582.379C382.386 581.438 381.467 580.812 380.512 580.982C379.557 581.152 378.928 582.052 379.106 582.994C379.285 583.935 380.205 584.561 381.16 584.391Z" fill="#E6E6E6"/>
<path d="M309.107 649.483C310.062 649.314 310.691 648.413 310.512 647.472C310.333 646.53 309.414 645.904 308.459 646.074C307.504 646.244 306.875 647.145 307.054 648.086C307.233 649.027 308.152 649.653 309.107 649.483Z" fill="#E6E6E6"/>
<path d="M212.652 603.601C213.606 603.431 214.236 602.531 214.057 601.589C213.878 600.648 212.958 600.022 212.004 600.192C211.049 600.361 210.419 601.262 210.598 602.204C210.777 603.145 211.697 603.771 212.652 603.601Z" fill="#E6E6E6"/>
<path d="M71.3603 455.693C72.3152 455.523 72.9443 454.622 72.7653 453.681C72.5864 452.74 71.6672 452.114 70.7122 452.284C69.7573 452.453 69.1282 453.354 69.3072 454.295C69.4861 455.237 70.4053 455.862 71.3603 455.693Z" fill="#E6E6E6"/>
<path d="M69.507 369.354C70.4619 369.185 71.091 368.284 70.9121 367.343C70.7331 366.401 69.8139 365.776 68.859 365.945C67.904 366.115 67.2749 367.016 67.4539 367.957C67.6328 368.898 68.552 369.524 69.507 369.354Z" fill="#E6E6E6"/>
<path d="M295.012 593.458C295.967 593.289 296.596 592.388 296.417 591.447C296.238 590.505 295.319 589.88 294.364 590.049C293.409 590.219 292.78 591.12 292.959 592.061C293.138 593.002 294.057 593.628 295.012 593.458Z" fill="#E6E6E6"/>
<path d="M430.308 237.533C433.173 237.024 435.06 234.322 434.523 231.497C433.986 228.673 431.229 226.797 428.364 227.305C425.499 227.814 423.612 230.516 424.149 233.341C424.686 236.165 427.443 238.042 430.308 237.533Z" fill="white"/>
<path d="M458.528 294.748C461.393 294.239 463.28 291.537 462.743 288.713C462.206 285.889 459.449 284.012 456.584 284.521C453.719 285.03 451.832 287.732 452.369 290.556C452.906 293.38 455.663 295.257 458.528 294.748Z" fill="white"/>
<path d="M446.204 449.829C449.069 449.32 450.956 446.618 450.419 443.794C449.882 440.97 447.125 439.093 444.26 439.602C441.395 440.111 439.508 442.813 440.045 445.637C440.582 448.462 443.339 450.338 446.204 449.829Z" fill="white"/>
<path d="M409.063 105.116C413.837 104.268 416.983 99.7642 416.088 95.0574C415.193 90.3505 410.597 87.2225 405.823 88.0707C401.048 88.919 397.903 93.4224 398.798 98.1292C399.692 102.836 404.288 105.964 409.063 105.116Z" fill="white"/>
<path d="M336.923 292.122C338.833 291.783 340.091 289.982 339.733 288.099C339.375 286.216 337.536 284.965 335.627 285.304C333.717 285.644 332.459 287.445 332.816 289.328C333.174 291.211 335.013 292.462 336.923 292.122Z" fill="#E6E6E6"/>
<path d="M601.61 365.109C603.52 364.769 604.778 362.968 604.42 361.085C604.062 359.202 602.224 357.951 600.314 358.29C598.404 358.63 597.146 360.431 597.504 362.314C597.862 364.197 599.7 365.448 601.61 365.109Z" fill="#E6E6E6"/>
<path d="M341.355 223.386C342.31 223.216 342.939 222.315 342.76 221.374C342.581 220.432 341.662 219.807 340.707 219.976C339.752 220.146 339.123 221.047 339.302 221.988C339.481 222.93 340.4 223.555 341.355 223.386Z" fill="#E6E6E6"/>
<path d="M508.524 324.47C509.479 324.3 510.108 323.4 509.929 322.458C509.75 321.517 508.831 320.891 507.876 321.061C506.921 321.231 506.292 322.131 506.471 323.073C506.65 324.014 507.569 324.64 508.524 324.47Z" fill="#E6E6E6"/>
<path d="M766.159 261.104C767.114 260.934 767.743 260.034 767.565 259.092C767.386 258.151 766.466 257.525 765.511 257.695C764.556 257.865 763.927 258.765 764.106 259.707C764.285 260.648 765.205 261.274 766.159 261.104Z" fill="#E6E6E6"/>
<path d="M694.107 326.197C695.062 326.027 695.691 325.126 695.512 324.185C695.333 323.243 694.414 322.618 693.459 322.788C692.504 322.957 691.875 323.858 692.054 324.799C692.233 325.741 693.152 326.366 694.107 326.197Z" fill="#E6E6E6"/>
<path d="M597.652 280.314C598.606 280.144 599.236 279.244 599.057 278.302C598.878 277.361 597.958 276.735 597.004 276.905C596.049 277.075 595.419 277.975 595.598 278.917C595.777 279.858 596.697 280.484 597.652 280.314Z" fill="#E6E6E6"/>
<path d="M456.36 132.406C457.315 132.237 457.944 131.336 457.765 130.395C457.586 129.453 456.667 128.828 455.712 128.997C454.757 129.167 454.128 130.068 454.307 131.009C454.486 131.95 455.405 132.576 456.36 132.406Z" fill="#E6E6E6"/>
<path d="M454.507 46.0677C455.462 45.8981 456.091 44.9974 455.912 44.056C455.733 43.1146 454.814 42.489 453.859 42.6586C452.904 42.8283 452.275 43.729 452.454 44.6704C452.633 45.6118 453.552 46.2374 454.507 46.0677Z" fill="#E6E6E6"/>
<path d="M512.618 400.45C513.573 400.28 514.202 399.379 514.023 398.438C513.844 397.496 512.925 396.871 511.97 397.04C511.015 397.21 510.386 398.111 510.564 399.052C510.743 399.994 511.663 400.619 512.618 400.45Z" fill="#E6E6E6"/>
<path d="M420.366 380.164C421.321 379.994 421.95 379.094 421.771 378.152C421.592 377.211 420.673 376.585 419.718 376.755C418.763 376.924 418.134 377.825 418.313 378.767C418.492 379.708 419.411 380.334 420.366 380.164Z" fill="#E6E6E6"/>
<path d="M680.012 270.172C680.967 270.002 681.596 269.102 681.417 268.16C681.238 267.219 680.319 266.593 679.364 266.763C678.409 266.933 677.78 267.833 677.959 268.775C678.138 269.716 679.057 270.342 680.012 270.172Z" fill="#E6E6E6"/>
<path d="M327.731 161.959C330.595 161.45 332.483 158.748 331.946 155.924C331.409 153.1 328.651 151.223 325.787 151.732C322.922 152.241 321.035 154.943 321.571 157.767C322.108 160.591 324.866 162.468 327.731 161.959Z" fill="white"/>
</g>
<path d="M190.155 552.221V509.238H164.155L140.863 552.221H125L151.155 505.22C136.607 499.611 129.333 489.579 129.333 475.125C129.333 464.613 132.841 456.451 139.857 450.639C146.925 444.777 156.726 441.845 169.262 441.845H205.09V552.221H190.155ZM144.191 475.125C144.191 481.796 146.306 487.153 150.536 491.196C154.818 495.239 160.75 497.286 168.334 497.336H190.155V453.823H169.03C160.982 453.823 154.818 455.693 150.536 459.433C146.306 463.173 144.191 468.403 144.191 475.125Z" fill="white"/>
<path d="M325.642 484.808V449.953H338.104C342.421 449.953 345.696 450.767 347.928 452.395C350.159 454.007 351.275 456.377 351.275 459.505C351.275 461.212 350.827 462.72 349.931 464.029C349.035 465.322 347.789 466.271 346.193 466.878C348.017 467.325 349.451 468.226 350.493 469.583C351.552 470.939 352.082 472.599 352.082 474.562C352.082 477.914 350.99 480.451 348.807 482.175C346.624 483.899 343.513 484.776 339.473 484.808H325.642ZM332.973 469.631V479.039H339.253C340.98 479.039 342.324 478.64 343.285 477.842C344.262 477.028 344.751 475.911 344.751 474.49C344.751 471.299 343.065 469.679 339.693 469.631H332.973ZM332.973 464.556H338.397C342.095 464.492 343.944 463.048 343.944 460.223C343.944 458.643 343.472 457.51 342.527 456.823C341.599 456.121 340.124 455.77 338.104 455.77H332.973V464.556Z" fill="white"/>
<path d="M348.856 512.969H332.973V519.719H338.691C342.877 519.719 346.193 520.717 348.636 522.712C351.096 524.691 352.326 527.364 352.326 530.731C352.326 534.115 351.104 536.836 348.661 538.895C346.233 540.938 343 541.975 338.959 542.007H325.568V507.151H348.856V512.969ZM332.973 525.513V536.237H338.813C340.686 536.237 342.177 535.735 343.285 534.729C344.409 533.724 344.971 532.375 344.971 530.684C344.971 529.104 344.433 527.859 343.358 526.949C342.299 526.023 340.841 525.545 338.984 525.513H332.973Z" fill="white"/>
<path d="M371.875 542.007C371.549 541.384 371.313 540.61 371.166 539.685C369.456 541.552 367.232 542.486 364.495 542.486C361.905 542.486 359.755 541.751 358.044 540.283C356.35 538.815 355.503 536.964 355.503 534.729C355.503 531.984 356.537 529.878 358.606 528.409C360.691 526.941 363.697 526.199 367.623 526.183H370.873V524.699C370.873 523.502 370.556 522.544 369.92 521.826C369.301 521.108 368.316 520.749 366.963 520.749C365.774 520.749 364.837 521.028 364.153 521.587C363.485 522.145 363.151 522.911 363.151 523.885H356.089C356.089 522.385 356.562 520.996 357.507 519.719C358.451 518.443 359.787 517.445 361.514 516.727C363.241 515.993 365.18 515.626 367.33 515.626C370.588 515.626 373.17 516.432 375.076 518.044C376.999 519.64 377.96 521.89 377.96 524.795V536.022C377.976 538.48 378.326 540.339 379.01 541.6V542.007H371.875ZM366.035 537.195C367.077 537.195 368.039 536.972 368.918 536.525C369.798 536.062 370.45 535.447 370.873 534.681V530.229H368.234C364.699 530.229 362.817 531.426 362.589 533.82L362.565 534.227C362.565 535.088 362.874 535.799 363.493 536.357C364.112 536.916 364.96 537.195 366.035 537.195Z" fill="white"/>
<path d="M407.185 529.295C407.185 533.285 406.257 536.485 404.4 538.895C402.559 541.289 400.066 542.486 396.922 542.486C394.25 542.486 392.092 541.576 390.447 539.757V551.966H383.385V516.105H389.933L390.178 518.642C391.888 516.631 394.12 515.626 396.873 515.626C400.131 515.626 402.665 516.807 404.473 519.169C406.281 521.531 407.185 524.787 407.185 528.936V529.295ZM400.123 528.792C400.123 526.383 399.683 524.523 398.804 523.215C397.94 521.906 396.678 521.252 395.016 521.252C392.801 521.252 391.277 522.081 390.447 523.741V534.346C391.31 536.054 392.849 536.908 395.065 536.908C398.437 536.908 400.123 534.203 400.123 528.792Z" fill="white"/>
<path d="M434.505 542.007H427.419V532.048H418.646V542.007H411.584V516.105H418.646V526.494H427.419V516.105H434.505V542.007Z" fill="white"/>
<path d="M455.3 542.007C454.975 541.384 454.738 540.61 454.592 539.685C452.881 541.552 450.657 542.486 447.921 542.486C445.33 542.486 443.18 541.751 441.469 540.283C439.775 538.815 438.928 536.964 438.928 534.729C438.928 531.984 439.963 529.878 442.031 528.409C444.117 526.941 447.122 526.199 451.048 526.183H454.298V524.699C454.298 523.502 453.981 522.544 453.345 521.826C452.726 521.108 451.741 520.749 450.389 520.749C449.199 520.749 448.263 521.028 447.578 521.587C446.911 522.145 446.577 522.911 446.577 523.885H439.515C439.515 522.385 439.987 520.996 440.932 519.719C441.877 518.443 443.213 517.445 444.939 516.727C446.666 515.993 448.605 515.626 450.755 515.626C454.013 515.626 456.595 516.432 458.501 518.044C460.424 519.64 461.385 521.89 461.385 524.795V536.022C461.401 538.48 461.751 540.339 462.436 541.6V542.007H455.3ZM449.46 537.195C450.503 537.195 451.464 536.972 452.344 536.525C453.223 536.062 453.875 535.447 454.298 534.681V530.229H451.659C448.124 530.229 446.243 531.426 446.015 533.82L445.99 534.227C445.99 535.088 446.3 535.799 446.919 536.357C447.538 536.916 448.385 537.195 449.46 537.195Z" fill="white"/>
<path d="M476.291 532.216L481.178 516.105H488.754L478.124 546.029L477.537 547.393C475.957 550.777 473.351 552.468 469.718 552.468C468.691 552.468 467.649 552.317 466.59 552.013V546.771L467.665 546.795C469.001 546.795 469.995 546.595 470.646 546.196C471.314 545.797 471.835 545.135 472.21 544.209L473.041 542.079L463.78 516.105H471.379L476.291 532.216Z" fill="white"/>
<path d="M513.507 516.105V542.007H506.445V521.706H500.214L499.774 529.702C499.497 533.963 498.642 537.067 497.208 539.014C495.775 540.961 493.641 541.959 490.806 542.007H488.411L488.338 536.381L489.218 536.309C490.488 536.214 491.417 535.479 492.004 534.107C492.59 532.734 492.957 530.396 493.103 527.093L493.592 516.105H513.507Z" fill="white"/>
<path d="M531.126 542.486C527.249 542.486 524.088 541.321 521.645 538.99C519.217 536.66 518.004 533.556 518.004 529.678V529.008C518.004 526.406 518.517 524.084 519.543 522.042C520.569 519.983 522.019 518.403 523.893 517.302C525.783 516.184 527.933 515.626 530.344 515.626C533.961 515.626 536.803 516.743 538.872 518.977C540.957 521.212 542 524.38 542 528.481V531.306H525.163C525.392 532.998 526.076 534.354 527.216 535.376C528.373 536.397 529.831 536.908 531.59 536.908C534.311 536.908 536.437 535.942 537.968 534.011L541.438 537.817C540.379 539.286 538.946 540.435 537.137 541.265C535.329 542.079 533.325 542.486 531.126 542.486ZM530.32 521.228C528.919 521.228 527.778 521.69 526.898 522.616C526.035 523.542 525.481 524.866 525.237 526.59H535.06V526.039C535.028 524.507 534.604 523.326 533.789 522.496C532.975 521.651 531.818 521.228 530.32 521.228Z" fill="white"/>
<path d="M260.728 549.954C228.379 503.731 222.374 498.987 222.374 481.999C222.374 458.73 241.513 439.866 265.121 439.866C288.73 439.866 307.868 458.73 307.868 481.999C307.868 498.987 301.864 503.731 269.515 549.954C267.392 552.977 262.851 552.976 260.728 549.954ZM265.121 499.555C274.958 499.555 282.933 491.695 282.933 481.999C282.933 472.304 274.958 464.444 265.121 464.444C255.284 464.444 247.31 472.304 247.31 481.999C247.31 491.695 255.284 499.555 265.121 499.555Z" fill="#DC5A5A"/>
</g>
<defs>
<clipPath id="clip0">
<rect width="2176.55" height="963.18" fill="white" transform="translate(-40)"/>
</clipPath>
</defs>
</svg>
