<svg width="417" height="114" viewBox="0 0 417 114" fill="none" xmlns="http://www.w3.org/2000/svg">
<path d="M65.1551 113.221V70.2381H39.155L15.8632 113.221H0L26.1549 66.2203C11.6072 60.6106 4.33336 50.5788 4.33336 36.1249C4.33336 25.6129 7.84131 17.451 14.8572 11.6391C21.9247 5.77667 31.7264 2.84546 44.2621 2.84546H80.0897V113.221H65.1551ZM19.1906 36.1249C19.1906 42.7959 21.3057 48.1529 25.5359 52.196C29.8176 56.2391 35.7502 58.2858 43.3336 58.3364H65.1551V14.823H44.03C35.9823 14.823 29.8176 16.6929 25.5359 20.4327C21.3057 24.1726 19.1906 29.4033 19.1906 36.1249Z" fill="white"/>
<path d="M200.642 45.8082V10.9528H213.104C217.421 10.9528 220.696 11.7668 222.928 13.3946C225.159 15.0065 226.275 17.3765 226.275 20.5046C226.275 22.2122 225.827 23.7204 224.931 25.0291C224.035 26.3218 222.789 27.2714 221.193 27.8778C223.017 28.3247 224.451 29.2264 225.493 30.5829C226.552 31.9395 227.082 33.5993 227.082 35.5623C227.082 38.9138 225.99 41.4513 223.807 43.1749C221.624 44.8985 218.513 45.7763 214.473 45.8082H200.642ZM207.973 30.6308V40.0389H214.253C215.98 40.0389 217.324 39.6399 218.285 38.8419C219.262 38.028 219.751 36.9109 219.751 35.4905C219.751 32.2986 218.065 30.6787 214.693 30.6308H207.973ZM207.973 25.5557H213.397C217.095 25.4919 218.944 24.0476 218.944 21.2227C218.944 19.6428 218.472 18.5096 217.527 17.8234C216.599 17.1212 215.124 16.7701 213.104 16.7701H207.973V25.5557Z" fill="white"/>
<path d="M223.856 73.9686H207.973V80.7195H213.691C217.877 80.7195 221.193 81.7169 223.636 83.7119C226.096 85.6908 227.326 88.364 227.326 91.7315C227.326 95.1149 226.104 97.836 223.661 99.8947C221.233 101.938 218 102.975 213.959 103.007H200.568V68.1514H223.856V73.9686ZM207.973 86.5128V97.2375H213.813C215.686 97.2375 217.177 96.7348 218.285 95.7293C219.409 94.7239 219.971 93.3753 219.971 91.6836C219.971 90.1036 219.433 88.8588 218.358 87.9491C217.299 87.0235 215.841 86.5447 213.984 86.5128H207.973Z" fill="white"/>
<path d="M246.875 103.007C246.549 102.384 246.313 101.61 246.166 100.685C244.456 102.552 242.232 103.486 239.495 103.486C236.905 103.486 234.755 102.751 233.044 101.283C231.35 99.8149 230.503 97.9636 230.503 95.7293C230.503 92.9843 231.537 90.8777 233.606 89.4094C235.691 87.9411 238.697 87.199 242.623 87.183H245.873V85.6988C245.873 84.5019 245.556 83.5443 244.92 82.8261C244.301 82.108 243.316 81.7489 241.963 81.7489C240.774 81.7489 239.837 82.0282 239.153 82.5867C238.485 83.1453 238.151 83.9114 238.151 84.8849H231.089C231.089 83.3847 231.562 81.9962 232.507 80.7195C233.451 79.4427 234.787 78.4453 236.514 77.7271C238.241 76.993 240.18 76.6259 242.33 76.6259C245.588 76.6259 248.17 77.4318 250.076 79.0437C251.999 80.6397 252.96 82.89 252.96 85.7946V97.022C252.976 99.4798 253.326 101.339 254.01 102.6V103.007H246.875ZM241.035 98.1951C242.077 98.1951 243.039 97.9716 243.918 97.5248C244.798 97.0619 245.45 96.4475 245.873 95.6814V91.2288H243.234C239.699 91.2288 237.817 92.4257 237.589 94.8196L237.565 95.2266C237.565 96.0884 237.874 96.7986 238.493 97.3572C239.112 97.9158 239.96 98.1951 241.035 98.1951Z" fill="white"/>
<path d="M282.185 90.2951C282.185 94.285 281.257 97.4849 279.4 99.8947C277.559 102.289 275.066 103.486 271.922 103.486C269.25 103.486 267.092 102.576 265.447 100.757V112.966H258.385V77.1047H264.933L265.178 79.6422C266.888 77.6313 269.12 76.6259 271.873 76.6259C275.131 76.6259 277.665 77.8069 279.473 80.1689C281.281 82.5309 282.185 85.7866 282.185 89.9361V90.2951ZM275.123 89.7924C275.123 87.3825 274.683 85.5233 273.804 84.2146C272.94 82.9059 271.678 82.2516 270.016 82.2516C267.801 82.2516 266.277 83.0815 265.447 84.7413V95.3463C266.31 97.054 267.849 97.9078 270.065 97.9078C273.437 97.9078 275.123 95.2027 275.123 89.7924Z" fill="white"/>
<path d="M309.505 103.007H302.419V93.0481H293.646V103.007H286.584V77.1047H293.646V87.4943H302.419V77.1047H309.505V103.007Z" fill="white"/>
<path d="M330.3 103.007C329.975 102.384 329.738 101.61 329.592 100.685C327.881 102.552 325.657 103.486 322.921 103.486C320.33 103.486 318.18 102.751 316.469 101.283C314.775 99.8149 313.928 97.9636 313.928 95.7293C313.928 92.9843 314.963 90.8777 317.031 89.4094C319.117 87.9411 322.122 87.199 326.048 87.183H329.298V85.6988C329.298 84.5019 328.981 83.5443 328.345 82.8261C327.726 82.108 326.741 81.7489 325.389 81.7489C324.199 81.7489 323.263 82.0282 322.578 82.5867C321.911 83.1453 321.577 83.9114 321.577 84.8849H314.515C314.515 83.3847 314.987 81.9962 315.932 80.7195C316.877 79.4427 318.213 78.4453 319.939 77.7271C321.666 76.993 323.605 76.6259 325.755 76.6259C329.013 76.6259 331.595 77.4318 333.501 79.0437C335.424 80.6397 336.385 82.89 336.385 85.7946V97.022C336.401 99.4798 336.751 101.339 337.436 102.6V103.007H330.3ZM324.46 98.1951C325.503 98.1951 326.464 97.9716 327.344 97.5248C328.223 97.0619 328.875 96.4475 329.298 95.6814V91.2288H326.659C323.124 91.2288 321.243 92.4257 321.015 94.8196L320.99 95.2266C320.99 96.0884 321.3 96.7986 321.919 97.3572C322.538 97.9158 323.385 98.1951 324.46 98.1951Z" fill="white"/>
<path d="M351.291 93.2157L356.178 77.1047H363.754L353.124 107.029L352.537 108.393C350.957 111.777 348.351 113.468 344.718 113.468C343.691 113.468 342.649 113.317 341.59 113.013V107.771L342.665 107.795C344.001 107.795 344.995 107.595 345.646 107.196C346.314 106.797 346.835 106.135 347.21 105.209L348.041 103.079L338.78 77.1047H346.379L351.291 93.2157Z" fill="white"/>
<path d="M388.507 77.1047V103.007H381.445V82.7064H375.214L374.774 90.7021C374.497 94.9633 373.642 98.0674 372.208 100.014C370.775 101.961 368.641 102.959 365.806 103.007H363.411L363.338 97.3811L364.218 97.3093C365.488 97.2135 366.417 96.4794 367.004 95.1069C367.59 93.7344 367.957 91.3963 368.103 88.0927L368.592 77.1047H388.507Z" fill="white"/>
<path d="M406.126 103.486C402.249 103.486 399.088 102.321 396.645 99.9905C394.217 97.6604 393.004 94.5563 393.004 90.6782V90.0079C393.004 87.4065 393.517 85.0844 394.543 83.0416C395.569 80.9828 397.019 79.4028 398.893 78.3016C400.783 77.1845 402.933 76.6259 405.344 76.6259C408.961 76.6259 411.803 77.743 413.872 79.9774C415.957 82.2117 417 85.3796 417 89.4812V92.306H400.163C400.392 93.9977 401.076 95.3543 402.216 96.3757C403.373 97.3971 404.831 97.9078 406.59 97.9078C409.311 97.9078 411.437 96.9422 412.968 95.0111L416.438 98.8175C415.379 100.286 413.946 101.435 412.137 102.265C410.329 103.079 408.325 103.486 406.126 103.486ZM405.32 82.2276C403.919 82.2276 402.778 82.6905 401.898 83.6161C401.035 84.5418 400.481 85.8664 400.237 87.59H410.06V87.0394C410.028 85.5073 409.604 84.3263 408.789 83.4964C407.975 82.6506 406.818 82.2276 405.32 82.2276Z" fill="white"/>
<path d="M135.728 110.954C103.379 64.7309 97.3743 59.987 97.3743 42.9993C97.3743 19.7299 116.513 0.866455 140.121 0.866455C163.73 0.866455 182.868 19.7299 182.868 42.9993C182.868 59.987 176.864 64.7309 144.515 110.954C142.392 113.977 137.851 113.976 135.728 110.954ZM140.121 60.5547C149.958 60.5547 157.933 52.6949 157.933 42.9993C157.933 33.3037 149.958 25.444 140.121 25.444C130.284 25.444 122.31 33.3037 122.31 42.9993C122.31 52.6949 130.284 60.5547 140.121 60.5547Z" fill="#DC5A5A"/>
</svg>
