<svg width="204" height="89" viewBox="0 0 204 89" fill="none" xmlns="http://www.w3.org/2000/svg">
<path d="M34.5488 70V48.959H22.0801L10.9102 70H3.30273L15.8457 46.9922C8.86914 44.2461 5.38086 39.3353 5.38086 32.2598C5.38086 27.1139 7.06315 23.1185 10.4277 20.2734C13.8171 17.4036 18.5176 15.9688 24.5293 15.9688H41.7109V70H34.5488ZM12.5059 32.2598C12.5059 35.5254 13.5202 38.1478 15.5488 40.127C17.6022 42.1061 20.4473 43.1081 24.084 43.1328H34.5488V21.832H24.418C20.5586 21.832 17.6022 22.7474 15.5488 24.5781C13.5202 26.4089 12.5059 28.9694 12.5059 32.2598Z" fill="#20203A"/>
<path d="M99.5234 37V19.9375H105.5C107.57 19.9375 109.141 20.3359 110.211 21.1328C111.281 21.9219 111.816 23.082 111.816 24.6133C111.816 25.4492 111.602 26.1875 111.172 26.8281C110.742 27.4609 110.145 27.9258 109.379 28.2227C110.254 28.4414 110.941 28.8828 111.441 29.5469C111.949 30.2109 112.203 31.0234 112.203 31.9844C112.203 33.625 111.68 34.8672 110.633 35.7109C109.586 36.5547 108.094 36.9844 106.156 37H99.5234ZM103.039 29.5703V34.1758H106.051C106.879 34.1758 107.523 33.9805 107.984 33.5898C108.453 33.1914 108.688 32.6445 108.688 31.9492C108.688 30.3867 107.879 29.5938 106.262 29.5703H103.039ZM103.039 27.0859H105.641C107.414 27.0547 108.301 26.3477 108.301 24.9648C108.301 24.1914 108.074 23.6367 107.621 23.3008C107.176 22.957 106.469 22.7852 105.5 22.7852H103.039V27.0859ZM110.656 50.7852H103.039V54.0898H105.781C107.789 54.0898 109.379 54.5781 110.551 55.5547C111.73 56.5234 112.32 57.832 112.32 59.4805C112.32 61.1367 111.734 62.4688 110.562 63.4766C109.398 64.4766 107.848 64.9844 105.91 65H99.4883V47.9375H110.656V50.7852ZM103.039 56.9258V62.1758H105.84C106.738 62.1758 107.453 61.9297 107.984 61.4375C108.523 60.9453 108.793 60.2852 108.793 59.457C108.793 58.6836 108.535 58.0742 108.02 57.6289C107.512 57.1758 106.812 56.9414 105.922 56.9258H103.039ZM121.695 65C121.539 64.6953 121.426 64.3164 121.355 63.8633C120.535 64.7773 119.469 65.2344 118.156 65.2344C116.914 65.2344 115.883 64.875 115.062 64.1562C114.25 63.4375 113.844 62.5312 113.844 61.4375C113.844 60.0938 114.34 59.0625 115.332 58.3438C116.332 57.625 117.773 57.2617 119.656 57.2539H121.215V56.5273C121.215 55.9414 121.062 55.4727 120.758 55.1211C120.461 54.7695 119.988 54.5938 119.34 54.5938C118.77 54.5938 118.32 54.7305 117.992 55.0039C117.672 55.2773 117.512 55.6523 117.512 56.1289H114.125C114.125 55.3945 114.352 54.7148 114.805 54.0898C115.258 53.4648 115.898 52.9766 116.727 52.625C117.555 52.2656 118.484 52.0859 119.516 52.0859C121.078 52.0859 122.316 52.4805 123.23 53.2695C124.152 54.0508 124.613 55.1523 124.613 56.5742V62.0703C124.621 63.2734 124.789 64.1836 125.117 64.8008V65H121.695ZM118.895 62.6445C119.395 62.6445 119.855 62.5352 120.277 62.3164C120.699 62.0898 121.012 61.7891 121.215 61.4141V59.2344H119.949C118.254 59.2344 117.352 59.8203 117.242 60.9922L117.23 61.1914C117.23 61.6133 117.379 61.9609 117.676 62.2344C117.973 62.5078 118.379 62.6445 118.895 62.6445ZM138.629 58.7773C138.629 60.7305 138.184 62.2969 137.293 63.4766C136.41 64.6484 135.215 65.2344 133.707 65.2344C132.426 65.2344 131.391 64.7891 130.602 63.8984V69.875H127.215V52.3203H130.355L130.473 53.5625C131.293 52.5781 132.363 52.0859 133.684 52.0859C135.246 52.0859 136.461 52.6641 137.328 53.8203C138.195 54.9766 138.629 56.5703 138.629 58.6016V58.7773ZM135.242 58.5312C135.242 57.3516 135.031 56.4414 134.609 55.8008C134.195 55.1602 133.59 54.8398 132.793 54.8398C131.73 54.8398 131 55.2461 130.602 56.0586V61.25C131.016 62.0859 131.754 62.5039 132.816 62.5039C134.434 62.5039 135.242 61.1797 135.242 58.5312ZM151.73 65H148.332V60.125H144.125V65H140.738V52.3203H144.125V57.4062H148.332V52.3203H151.73V65ZM161.703 65C161.547 64.6953 161.434 64.3164 161.363 63.8633C160.543 64.7773 159.477 65.2344 158.164 65.2344C156.922 65.2344 155.891 64.875 155.07 64.1562C154.258 63.4375 153.852 62.5312 153.852 61.4375C153.852 60.0938 154.348 59.0625 155.34 58.3438C156.34 57.625 157.781 57.2617 159.664 57.2539H161.223V56.5273C161.223 55.9414 161.07 55.4727 160.766 55.1211C160.469 54.7695 159.996 54.5938 159.348 54.5938C158.777 54.5938 158.328 54.7305 158 55.0039C157.68 55.2773 157.52 55.6523 157.52 56.1289H154.133C154.133 55.3945 154.359 54.7148 154.812 54.0898C155.266 53.4648 155.906 52.9766 156.734 52.625C157.562 52.2656 158.492 52.0859 159.523 52.0859C161.086 52.0859 162.324 52.4805 163.238 53.2695C164.16 54.0508 164.621 55.1523 164.621 56.5742V62.0703C164.629 63.2734 164.797 64.1836 165.125 64.8008V65H161.703ZM158.902 62.6445C159.402 62.6445 159.863 62.5352 160.285 62.3164C160.707 62.0898 161.02 61.7891 161.223 61.4141V59.2344H159.957C158.262 59.2344 157.359 59.8203 157.25 60.9922L157.238 61.1914C157.238 61.6133 157.387 61.9609 157.684 62.2344C157.98 62.5078 158.387 62.6445 158.902 62.6445ZM171.77 60.207L174.113 52.3203H177.746L172.648 66.9688L172.367 67.6367C171.609 69.293 170.359 70.1211 168.617 70.1211C168.125 70.1211 167.625 70.0469 167.117 69.8984V67.332L167.633 67.3438C168.273 67.3438 168.75 67.2461 169.062 67.0508C169.383 66.8555 169.633 66.5312 169.812 66.0781L170.211 65.0352L165.77 52.3203H169.414L171.77 60.207ZM189.617 52.3203V65H186.23V55.0625H183.242L183.031 58.9766C182.898 61.0625 182.488 62.582 181.801 63.5352C181.113 64.4883 180.09 64.9766 178.73 65H177.582L177.547 62.2461L177.969 62.2109C178.578 62.1641 179.023 61.8047 179.305 61.1328C179.586 60.4609 179.762 59.3164 179.832 57.6992L180.066 52.3203H189.617ZM198.066 65.2344C196.207 65.2344 194.691 64.6641 193.52 63.5234C192.355 62.3828 191.773 60.8633 191.773 58.9648V58.6367C191.773 57.3633 192.02 56.2266 192.512 55.2266C193.004 54.2188 193.699 53.4453 194.598 52.9062C195.504 52.3594 196.535 52.0859 197.691 52.0859C199.426 52.0859 200.789 52.6328 201.781 53.7266C202.781 54.8203 203.281 56.3711 203.281 58.3789V59.7617H195.207C195.316 60.5898 195.645 61.2539 196.191 61.7539C196.746 62.2539 197.445 62.5039 198.289 62.5039C199.594 62.5039 200.613 62.0312 201.348 61.0859L203.012 62.9492C202.504 63.668 201.816 64.2305 200.949 64.6367C200.082 65.0352 199.121 65.2344 198.066 65.2344ZM197.68 54.8281C197.008 54.8281 196.461 55.0547 196.039 55.5078C195.625 55.9609 195.359 56.6094 195.242 57.4531H199.953V57.1836C199.938 56.4336 199.734 55.8555 199.344 55.4492C198.953 55.0352 198.398 54.8281 197.68 54.8281Z" fill="#20203A"/>
<path d="M68.3932 68.8903C52.8796 46.2631 50 43.9408 50 35.625C50 24.2341 59.1781 15 70.5 15C81.8219 15 91 24.2341 91 35.625C91 43.9408 88.1204 46.2631 72.6068 68.8903C71.5887 70.37 69.4112 70.3698 68.3932 68.8903ZM70.5 44.2187C75.2175 44.2187 79.0417 40.3712 79.0417 35.625C79.0417 30.8788 75.2175 27.0312 70.5 27.0312C65.7825 27.0312 61.9583 30.8788 61.9583 35.625C61.9583 40.3712 65.7825 44.2187 70.5 44.2187Z" fill="#DC5A5A"/>
</svg>
