<svg width="250" height="412" viewBox="0 0 250 412" fill="none" xmlns="http://www.w3.org/2000/svg">
<path d="M51.9693 409.523C62.1861 402.688 67.3309 389.685 67.5339 377.395C67.602 373.273 66.5617 368.495 62.8695 366.662C61.8126 366.137 60.6314 365.914 59.4561 366.018C58.2807 366.122 57.1568 366.548 56.2081 367.249C55.2595 367.951 54.523 368.901 54.0797 369.994C53.6364 371.088 53.5035 372.283 53.6958 373.447C52.3268 369.437 50.5506 365.578 48.3952 361.93C46.57 358.842 44.0072 355.628 40.432 355.335C36.2844 354.994 32.8195 359.023 32.2316 363.143C31.6437 367.263 33.1427 371.363 34.6162 375.255C34.2 373.492 33.3484 371.862 32.1393 370.513C30.9302 369.165 29.4022 368.141 27.6951 367.536C25.9881 366.93 24.1565 366.763 22.3679 367.048C20.5794 367.334 18.891 368.064 17.4573 369.17C13.4012 372.302 12.0645 378.065 13.085 383.086C14.1054 388.108 17.1022 392.501 20.4162 396.409C24.3022 400.992 28.8018 405.18 34.1892 407.84C39.5766 410.501 45.9469 411.518 51.6783 409.715L51.9693 409.523Z" fill="#F2F2F2"/>
<path d="M191.711 244.925C190.305 244.226 189.07 243.226 188.092 241.997C187.114 240.769 186.417 239.34 186.051 237.813C185.685 236.286 185.658 234.697 185.972 233.158C186.286 231.619 186.934 230.168 187.87 228.907L162.837 107.367L186.197 107.059L203.581 227.057C205.596 228.77 206.912 231.162 207.281 233.78C207.65 236.398 207.046 239.061 205.583 241.263C204.12 243.466 201.899 245.055 199.343 245.73C196.786 246.405 194.071 246.119 191.711 244.925V244.925Z" fill="#FFB8B8"/>
<path d="M77.9272 238.614C76.7798 237.542 75.8815 236.231 75.2955 234.774C74.7096 233.317 74.4503 231.749 74.5358 230.181C74.6214 228.612 75.0498 227.082 75.7908 225.697C76.5318 224.313 77.5673 223.107 78.8245 222.166L89.5767 98.5415L112.05 104.924L94.4089 224.884C95.85 227.101 96.4279 229.77 96.033 232.384C95.6381 234.999 94.2979 237.378 92.2664 239.07C90.2348 240.762 87.653 241.651 85.0102 241.567C82.3674 241.483 79.8472 240.432 77.9272 238.614Z" fill="#FFB8B8"/>
<path d="M150.015 398.06L162.275 398.059L168.107 350.771L150.013 350.771L150.015 398.06Z" fill="#FFB8B8"/>
<path d="M171.032 394.556H147.388V409.443H185.919C185.919 405.494 184.35 401.708 181.559 398.916C178.767 396.124 174.98 394.556 171.032 394.556Z" fill="#2F2E41"/>
<path d="M95.0153 398.06L107.275 398.059L113.107 350.771L95.0133 350.771L95.0153 398.06Z" fill="#FFB8B8"/>
<path d="M116.032 394.556H92.3882V409.443H130.919C130.919 405.494 129.35 401.708 126.559 398.916C123.767 396.124 119.98 394.556 116.032 394.556Z" fill="#2F2E41"/>
<path d="M146.839 60.1953C133.274 60.1953 122.278 49.199 122.278 35.6343C122.278 22.0696 133.274 11.0732 146.839 11.0732C160.403 11.0732 171.4 22.0696 171.4 35.6343C171.4 49.199 160.403 60.1953 146.839 60.1953Z" fill="#FFB8B8"/>
<path d="M112.31 368.222C113.31 368.217 114.277 367.867 115.048 367.231C115.819 366.595 116.347 365.712 116.541 364.732L133.145 278.826C133.297 278.039 133.726 277.333 134.355 276.835C134.983 276.338 135.768 276.082 136.569 276.114C137.369 276.147 138.132 276.465 138.718 277.011C139.304 277.557 139.675 278.296 139.763 279.092L149.061 362.769C149.17 363.791 149.643 364.739 150.392 365.441C151.142 366.143 152.119 366.552 153.145 366.595L167.09 367.228C167.657 367.258 168.224 367.174 168.758 366.98C169.291 366.787 169.781 366.488 170.196 366.101C170.616 365.719 170.954 365.257 171.193 364.743C171.433 364.228 171.567 363.672 171.589 363.105L176.936 233.846C176.965 233.193 176.844 232.543 176.582 231.944C176.321 231.345 175.926 230.814 175.428 230.392L172.336 227.754C171.556 227.089 170.565 226.724 169.541 226.724H97.2622C96.1204 226.725 95.0258 227.179 94.2184 227.986C93.411 228.794 92.9569 229.888 92.9556 231.03V363.26C92.9535 364.37 93.3812 365.439 94.1491 366.241C94.917 367.043 95.9655 367.517 97.075 367.563L112.126 368.218C112.188 368.22 112.249 368.222 112.31 368.222Z" fill="#2F2E41"/>
<path d="M149.327 245.53C161.013 245.531 171.314 242.417 176.514 233.336C176.949 232.587 177.153 231.727 177.1 230.863L170.566 130.987C170.513 130.179 170.754 129.38 171.245 128.736L189.579 104.698C189.922 104.248 190.174 103.734 190.318 103.186C190.463 102.638 190.498 102.067 190.422 101.506C190.345 100.944 190.159 100.403 189.873 99.9143C189.587 99.4251 189.207 98.9972 188.755 98.6551L161.253 77.8196C160.676 77.3807 160.256 76.7671 160.055 76.0701L159.254 73.2664C159.006 72.393 158.488 71.6206 157.774 71.06C157.059 70.4994 156.186 70.1794 155.279 70.1458L135.098 69.3691C134.425 69.3466 133.756 69.4806 133.144 69.7607C132.532 70.0408 131.993 70.4593 131.57 70.9832L129.422 73.6673C129.148 74.01 128.81 74.2955 128.426 74.5075L94.6766 93.1579C94.0103 93.5271 93.4537 94.066 93.0632 94.72C92.6727 95.374 92.4622 96.1197 92.4532 96.8813L92.4525 96.9411L92.4662 96.9981C100.334 129.801 99.891 171.263 91.074 227.483C91.0504 228.34 91.2835 229.185 91.7433 229.909C92.2032 230.633 92.8688 231.203 93.6548 231.547C100.959 234.71 127.547 245.53 149.327 245.53Z" fill="#DC5A5A"/>
<path d="M169.879 142.507H192.737C193.324 142.507 193.904 142.388 194.443 142.157C194.981 141.925 195.467 141.586 195.869 141.16C196.272 140.733 196.583 140.229 196.784 139.678C196.985 139.128 197.071 138.541 197.037 137.956C196.697 132.133 196.026 121.058 195.354 112.324C194.387 99.756 182.072 93.5701 181.948 93.5084L181.707 93.3906L173.393 98.6682L165.656 137.356C165.531 137.981 165.547 138.625 165.701 139.243C165.855 139.862 166.145 140.438 166.549 140.93C166.953 141.423 167.461 141.82 168.037 142.092C168.613 142.365 169.242 142.506 169.879 142.507H169.879Z" fill="#DC5A5A"/>
<path d="M107.243 140.373C107.846 140.369 108.442 140.239 108.991 139.991C109.541 139.742 110.032 139.381 110.434 138.931C110.835 138.481 111.138 137.952 111.322 137.378C111.506 136.803 111.568 136.197 111.503 135.597L107.285 96.787L99.1349 90.8179L98.9494 90.8384C98.8623 90.8487 90.18 91.9328 86.2905 101.656C83.5209 108.58 79.2905 121.378 77.0153 128.39C76.8327 128.953 76.7686 129.549 76.8268 130.138C76.885 130.728 77.0643 131.299 77.3536 131.816C77.6428 132.333 78.0357 132.784 78.5076 133.142C78.9796 133.5 79.5204 133.757 80.0961 133.896L106.204 140.247C106.544 140.33 106.893 140.373 107.243 140.373Z" fill="#DC5A5A"/>
<path d="M146.28 60.3669C141.027 52.056 147.585 29.1779 161.875 28.581C165.175 28.4432 166.442 23.6423 167.563 20.5366C168.134 18.736 168.286 16.8286 168.007 14.9603C167.727 13.0921 167.025 11.3124 165.952 9.75729C163.77 6.6584 160.765 4.23101 157.277 2.74899C153.353 0.946253 149.087 0.0087352 144.769 6.07502e-05C140.45 -0.0086137 136.181 0.91177 132.25 2.69873C128.318 4.48569 124.818 7.0974 121.985 10.3567C119.152 13.6159 117.054 17.4464 115.832 21.5883C114.61 25.7301 114.293 30.0862 114.904 34.3612C115.514 38.6361 117.036 42.7298 119.368 46.3643C121.7 49.9989 124.787 53.0892 128.418 55.4258C132.05 57.7623 136.141 59.2902 140.416 59.9059L146.28 60.3669Z" fill="#2F2E41"/>
<path d="M1 411.367H249C249.265 411.367 249.52 411.262 249.707 411.074C249.895 410.887 250 410.632 250 410.367C250 410.102 249.895 409.848 249.707 409.66C249.52 409.472 249.265 409.367 249 409.367H1C0.734787 409.367 0.480438 409.472 0.292908 409.66C0.105377 409.848 0 410.102 0 410.367C0 410.632 0.105377 410.887 0.292908 411.074C0.480438 411.262 0.734787 411.367 1 411.367Z" fill="#3F3D56"/>
</svg>
