<svg width="47" height="100" viewBox="0 0 47 100" fill="none" xmlns="http://www.w3.org/2000/svg">
<rect x="1.5" y="1.5" width="44" height="70.5652" rx="20.5" fill="white" stroke="#DC5A5A" stroke-width="3"/>
<rect x="21.5" y="13.5" width="5" height="17" rx="2.5" fill="white" stroke="#DC5A5A" stroke-width="3"/>
<path d="M6.32031 96V84.625H10.0391C11.2734 84.625 12.2005 84.8802 12.8203 85.3906C13.4453 85.901 13.7578 86.6562 13.7578 87.6562C13.7578 88.1875 13.6068 88.6589 13.3047 89.0703C13.0026 89.4766 12.5911 89.7917 12.0703 90.0156C12.6849 90.1875 13.1693 90.5156 13.5234 91C13.8828 91.4792 14.0625 92.0521 14.0625 92.7188C14.0625 93.7396 13.7318 94.5417 13.0703 95.125C12.4089 95.7083 11.474 96 10.2656 96H6.32031ZM7.82031 90.6797V94.7734H10.2969C10.9948 94.7734 11.5443 94.5938 11.9453 94.2344C12.3516 93.8698 12.5547 93.3698 12.5547 92.7344C12.5547 91.3646 11.8099 90.6797 10.3203 90.6797H7.82031ZM7.82031 89.4766H10.0859C10.7422 89.4766 11.2656 89.3125 11.6562 88.9844C12.0521 88.6562 12.25 88.2109 12.25 87.6484C12.25 87.0234 12.0677 86.5703 11.7031 86.2891C11.3385 86.0026 10.7839 85.8594 10.0391 85.8594H7.82031V89.4766ZM22.9688 96H21.5234V92.3906H17.6406V96H16.1875V87.5469H17.6406V91.2109H21.5234V87.5469H22.9688V96ZM30.7656 87.5469H32.2109V96H30.7656V89.8359L26.8672 96H25.4219V87.5469H26.8672V93.7188L30.7656 87.5469ZM39.1797 89.8594C39.1797 89.4635 39.0286 89.151 38.7266 88.9219C38.4245 88.6875 38.0104 88.5703 37.4844 88.5703C36.974 88.5703 36.5469 88.7031 36.2031 88.9688C35.8646 89.2344 35.6953 89.5469 35.6953 89.9062H34.2578C34.2578 89.1719 34.5651 88.5703 35.1797 88.1016C35.7943 87.6328 36.5625 87.3984 37.4844 87.3984C38.474 87.3984 39.2448 87.612 39.7969 88.0391C40.349 88.4609 40.625 89.0651 40.625 89.8516C40.625 90.2318 40.5104 90.5807 40.2812 90.8984C40.0521 91.2161 39.7266 91.4688 39.3047 91.6562C40.2891 91.9896 40.7812 92.6458 40.7812 93.625C40.7812 94.401 40.4818 95.0156 39.8828 95.4688C39.2839 95.9219 38.4844 96.1484 37.4844 96.1484C36.5104 96.1484 35.7057 95.9115 35.0703 95.4375C34.4401 94.9583 34.125 94.3125 34.125 93.5H35.5625C35.5625 93.9115 35.7448 94.2656 36.1094 94.5625C36.4792 94.8542 36.9375 95 37.4844 95C38.0365 95 38.4818 94.8724 38.8203 94.6172C39.1589 94.362 39.3281 94.0312 39.3281 93.625C39.3281 93.151 39.1849 92.8125 38.8984 92.6094C38.6172 92.401 38.1771 92.2969 37.5781 92.2969H36.1328V91.0781H37.7031C38.6875 91.0521 39.1797 90.6458 39.1797 89.8594Z" fill="#DC5A5A"/>
</svg>
